# xmcd CD database file
#
# Track frame offsets:
#	150
#	17045
#	38492
#	53780
#	72805
#	87672
#	108722
#	132030
#	152890
#	174232
#	193357
#	222650
#	245332
#	258977
#	280222
#	298650
#
# Disc length: 4197 seconds
#
# Revision: 1
# Processed by: cddbd v1.5.2PL0 Copyright (c) Steve Scherf et al.
# Submitted via: CDex 1.70beta2
#
DISCID=f0106310
DTITLE=Various Artist - Soul Bossa Production 1994-2005 Disc2
DYEAR=2006
DGENRE=Jazz
TTITLE0=Touch Of Your Eyes - Soul Bossa Trio
TTITLE1=SKY - feat.vocal Miyuki Hatakeyama - Soul Bossa Trio
TTITLE2=Dindi - feat.vocal Miyuki Hatakeyama - Soul Bossa Trio
TTITLE3=Love Dance - Soul Bossa Trio
TTITLE4=Message Of Love - Soul Bossa Trio
TTITLE5=How Insensitive - feat.vocal Miyuki Hatakeyama - Soul Bossa Trio
TTITLE6=Love theme from "Spartacus" - Soul Bossa Trio
TTITLE7=All I Want - Ann Sally
TTITLE8=All Together Alone - Ann Sally with BE THE VOICE
TTITLE9=alison - feat.vocal Miyuki Hatakeyama - Soul Bossa Trio
TTITLE10=Words of Love - feat.vocal Ann Sally - Soul Bossa Trio
TTITLE11=We've Only Just Begun - Takahito Mori
TTITLE12=It Had To Be You - noon
TTITLE13=Ribbon in the sky - feat.vocal noon - Soul Bossa Trio
TTITLE14=Tinsagu nu hana - feat.vocal Miho Teruya - Soul Bossa Trio
TTITLE15=Don't Let Me Down - feat.vocal Fujiko Shuri - Soul Bossa Trio
EXTD=YEAR: 2006
EXTT0=
EXTT1=
EXTT2=
EXTT3=
EXTT4=
EXTT5=
EXTT6=
EXTT7=
EXTT8=
EXTT9=
EXTT10=
EXTT11=
EXTT12=
EXTT13=
EXTT14=
EXTT15=
PLAYORDER=
